<svg xmlns="http://www.w3.org/2000/svg" viewBox="0 0 138.67 109.84"><defs><style>.cls-1{fill:#552317;}.cls-2{fill:#f82e2e;}</style></defs><g id="Layer_2" data-name="Layer 2"><g id="Layer_1-2" data-name="Layer 1"><path class="cls-1" d="M17.78,49.39c-1-8.68,4-13.38,10.62-17,6.23-3.38,13-5.1,20-6.16A127.5,127.5,0,0,1,98,28.07a48.84,48.84,0,0,1,15,6c3.55,2.26,6.68,5,7.55,9.34a39.87,39.87,0,0,1,.36,5.76c2.4-.49,4.79-1.1,7.21-1.4a24.16,24.16,0,0,1,5.24,0,5.79,5.79,0,0,1,5.3,5.68q.12,4.56,0,9.12a6.1,6.1,0,0,1-6.25,6c-2.21,0-4.42.16-6.62.28a5.79,5.79,0,0,0-1.35.33c-3.42,1.11-3.63,1.41-3.63,4.94,0,4.69-.12,9.39,0,14.07a12.68,12.68,0,0,1-5,10.62c-4.41,3.68-9.64,5.69-15.08,7.2-12,3.34-24.23,4.2-36.6,3.77-9.92-.35-19.71-1.57-29.18-4.7a35.58,35.58,0,0,1-12.24-6.42,12.65,12.65,0,0,1-4.83-10.39c.14-5.3,0-10.61.06-15.92,0-1-.23-1.75-1.2-2.06A45,45,0,0,0,11,68.58a26.46,26.46,0,0,0-4.63-.06A6.1,6.1,0,0,1,0,62.35C0,59.57,0,56.78,0,54a5.86,5.86,0,0,1,5.11-6.19c3.76-.8,7.38,0,11,1C16.59,49,17.07,49.15,17.78,49.39ZM69.55,29.57c-11,.34-22.11,1.18-32.81,4.64-4.28,1.38-8.46,3-11.68,6.37-2.87,3-2.87,6.21,0,9.14a14.85,14.85,0,0,0,3.67,2.79,57.76,57.76,0,0,0,7.61,3.34c11.42,3.85,23.23,4.91,35.21,4.69,10.24-.19,20.38-1.13,30.16-4.4,4.53-1.51,8.79-3.56,12.19-7,2.25-2.3,2.46-4.91.5-7.49A9.56,9.56,0,0,0,111.67,39a61.11,61.11,0,0,0-9-4.41C92,30.77,80.89,29.86,69.55,29.57Zm41.31,52.25c0-2.11,0-4.22,0-6.34s-.89-3.07-2.46-3-2.34,1.06-2.35,3c0,3.51-.08,7,0,10.51a2.32,2.32,0,0,1-1.6,2.6c-3.37,1.26-6.71,2.56-10.09,3.78-1.49.54-2.25,1.63-1.89,3a2.35,2.35,0,0,0,3,1.66,24.8,24.8,0,0,0,2.53-.67c3.88-1.23,7.73-2.55,11.07-5A3.72,3.72,0,0,0,110.88,88C110.79,86,110.86,83.88,110.86,81.82Zm-83.07-.07c0,2.16-.11,4.33.06,6.48A4.09,4.09,0,0,0,29,90.88c4.25,3.45,9.38,5,14.61,6.21a2.08,2.08,0,0,0,2.51-1.77,2.27,2.27,0,0,0-1.36-2.79c-.51-.23-1.1-.27-1.63-.47Q38.59,90.28,34,88.45a2.15,2.15,0,0,1-1.45-2.37c.1-3.65.06-7.31,0-11,0-1.73-1-2.77-2.48-2.72s-2.29,1-2.32,2.71C27.77,77.32,27.79,79.53,27.79,81.75ZM8.88,52.57c-.58,0-1.08-.1-1.58-.1-2.11,0-2.38.24-2.39,2.39v5.26c0,3.7,0,3.7,3.66,3.42.09,0,.17-.09.31-.17ZM129.75,63.64h2.47c1,0,1.53-.46,1.52-1.5,0-2.73.06-5.46-.06-8.19a2,2,0,0,0-1.25-1.39,10,10,0,0,0-2.68-.07Zm-9,1.5c1.28-.37,2.36-.65,3.41-1a1,1,0,0,0,.62-.72c0-3.32,0-6.65,0-10.29-1.32.56-2.42,1-3.44,1.5a1.48,1.48,0,0,0-.6,1.09C120.74,58.78,120.76,61.86,120.76,65.14ZM13.83,53.43c0,3.33,0,6.62,0,9.91a1,1,0,0,0,.58.76c1.09.38,2.22.66,3.45,1V58.19c0-3.61,0-3.61-3.47-4.75A2.84,2.84,0,0,0,13.83,53.43Z"/><path class="cls-2" d="M68.68,14.07A14.07,14.07,0,0,1,67.09,13c-2.33-2.19-3-4.94-1.39-7.7a20.29,20.29,0,0,1,4-4.61A2.35,2.35,0,0,1,73.24,1c.83,1.1.56,2.43-.65,3.53a19.75,19.75,0,0,0-2.31,2.26,1.84,1.84,0,0,0,.35,2.85c4.53,3.55,2.27,7.84-.77,10a2.57,2.57,0,0,1-3.74-.26c-.89-1.12-.61-2.43.75-3.62C67.36,15.35,67.83,14.88,68.68,14.07Z"/><path class="cls-2" d="M50.94,14.3c-.67-.51-1-.73-1.31-1-2.83-2.52-3.42-5.47-1.4-8.67A18.51,18.51,0,0,1,52,.61a2.33,2.33,0,0,1,3.52.46,2.43,2.43,0,0,1-.63,3.41,21.38,21.38,0,0,0-2.33,2.23,1.93,1.93,0,0,0,.32,3c3.66,3.29,3.26,7.55-.91,10.09-1.44.87-2.9.68-3.7-.49s-.46-2.41.84-3.49C49.62,15.34,50.17,14.91,50.94,14.3Z"/><path class="cls-2" d="M86.18,14c-.32-.24-.66-.47-1-.74-2.83-2.53-3.4-5.49-1.37-8.7A18.22,18.22,0,0,1,87.47.67,2.36,2.36,0,0,1,91,1c.86,1.14.62,2.42-.63,3.53a19.75,19.75,0,0,0-2.33,2.24,1.91,1.91,0,0,0,.33,2.87c3.63,3.36,3.4,7.15-.58,9.94-1.48,1-3,1-3.89-.16s-.6-2.55.86-3.72a17.3,17.3,0,0,1,1.71-1Z"/><path class="cls-2" d="M59.41,55.53c.51-4.34,1.47-8.19,4.51-11.17s6.82-2.89,9.68.18,3.7,6.86,4.41,11Z"/><path class="cls-2" d="M95.64,52,83.19,54.13c-.94-3.06-1.79-5.83-2.65-8.59-.38-1.23,0-1.66,1.46-1.84a11.49,11.49,0,0,1,10.51,4C93.57,48.87,94.42,50.27,95.64,52Z"/><path class="cls-2" d="M56.91,45.36c-.9,3.21-1.76,6.31-2.69,9.67l-12.07-2.3C43.52,46.89,51.57,43,56.91,45.36Z"/></g></g></svg>